<svg xmlns="http://www.w3.org/2000/svg" viewBox="0 0 960 540" role="img" aria-labelledby="title desc">
  <title id="title">Sympafix Spijkerwijzer mockup</title>
  <desc id="desc">Illustratie van een snelle lookup tool met groene status indicatoren.</desc>
  <defs>
    <linearGradient id="bg" x1="0%" y1="0%" x2="100%" y2="100%">
      <stop offset="0%" stop-color="#0f172a" />
      <stop offset="100%" stop-color="#1e293b" />
    </linearGradient>
    <linearGradient id="header" x1="0%" y1="0%" x2="100%" y2="0%">
      <stop offset="0%" stop-color="#14b8a6" />
      <stop offset="100%" stop-color="#84cc16" />
    </linearGradient>
  </defs>
  <rect width="960" height="540" fill="url(#bg)" rx="24" />
  <rect x="48" y="60" width="864" height="420" rx="28" fill="#0f172a" opacity="0.82" />
  <rect x="80" y="96" width="800" height="72" rx="20" fill="url(#header)" />
  <rect x="80" y="192" width="800" height="224" rx="24" fill="#f8fafc" opacity="0.95" />
  <rect x="112" y="220" width="248" height="48" rx="16" fill="#e2e8f0" />
  <rect x="384" y="220" width="248" height="48" rx="16" fill="#e2e8f0" />
  <rect x="656" y="220" width="192" height="48" rx="16" fill="#22c55e" opacity="0.85" />
  <text x="128" y="130" font-family="'Poppins', 'Arial', sans-serif" font-size="30" fill="#0f172a">Spijkerwijzer</text>
  <text x="136" y="252" font-family="'Poppins', 'Arial', sans-serif" font-size="20" fill="#0f172a" opacity="0.65">Machine</text>
  <text x="408" y="252" font-family="'Poppins', 'Arial', sans-serif" font-size="20" fill="#0f172a" opacity="0.65">Anker</text>
  <text x="684" y="252" font-family="'Poppins', 'Arial', sans-serif" font-size="20" fill="#0f172a" opacity="0.65">Geschikt</text>
  <g fill="#22c55e" opacity="0.9">
    <circle cx="708" cy="320" r="14" />
    <circle cx="780" cy="320" r="14" opacity="0.7" />
    <circle cx="852" cy="320" r="14" opacity="0.4" />
  </g>
  <g fill="#0f172a" opacity="0.3">
    <rect x="112" y="300" width="520" height="12" rx="6" />
    <rect x="112" y="328" width="520" height="12" rx="6" />
    <rect x="112" y="356" width="520" height="12" rx="6" />
  </g>
</svg>
